/* XPM */
static char * Wall_E_xpm[] = {
"64 64 2 1",
" 	c #000000",
".	c #0F6351",
"         ..........          ..........          ..........     ",
"        ..........          ..........          ..........      ",
"       ..........          ..........          ..........       ",
"      ..........          ..........          ..........        ",
"     ..........          ..........          ..........         ",
"    ..........          ..........          ..........          ",
"   ..........          ..........          ..........          .",
"  ..........          ..........          ..........          ..",
" ..........          ..........          ..........          ...",
"..........          ..........          ..........          ....",
".........          ..........          ..........          .....",
"........          ..........          ..........          ......",
".......          ..........          ..........          .......",
"......          ..........          ..........          ........",
".....          ..........          ..........          .........",
"....          ..........          ..........          ..........",
"...          ..........          ..........          .......... ",
"..          ..........          ..........          ..........  ",
".          ..........          ..........          ..........   ",
"          ..........          ..........          ..........    ",
"         ..........          ..........          ..........     ",
"        ..........          ..........          ..........      ",
"       ..........          ..........          ..........       ",
"      ..........          ..........          ..........        ",
"     ..........          ..........          ..........         ",
"    ..........          ..........          ..........          ",
"   ..........          ..........          ..........          .",
"  ..........          ..........          ..........          ..",
" ..........          ..........          ..........          ...",
"..........          ..........          ..........          ....",
".........          ..........          ..........          .....",
"........          ..........          ..........          ......",
".......          ..........          ..........          .......",
"......          ..........          ..........          ........",
".....          ..........          ..........          .........",
"....          ..........          ..........          ..........",
"...          ..........          ..........          .......... ",
"..          ..........          ..........          ..........  ",
".          ..........          ..........          ..........   ",
"          ..........          ..........          ..........    ",
"         ..........          ..........          ..........     ",
"        ..........          ..........          ..........      ",
"       ..........          ..........          ..........       ",
"      ..........          ..........          ..........        ",
"     ..........          ..........          ..........         ",
"    ..........          ..........          ..........          ",
"   ..........          ..........          ..........          .",
"  ..........          ..........          ..........          ..",
" ..........          ..........          ..........          ...",
"..........          ..........          ..........          ....",
".........          ..........          ..........          .....",
"........          ..........          ..........          ......",
".......          ..........          ..........          .......",
"......          ..........          ..........          ........",
".....          ..........          ..........          .........",
"....          ..........          ..........          ..........",
"...          ..........          ..........          .......... ",
"..          ..........          ..........          ..........  ",
".          ..........          ..........          ..........   ",
"          ..........          ..........          ..........    ",
"         ..........          ..........          ..........     ",
"        ..........          ..........          ..........      ",
"       ..........          ..........          ..........       ",
"      ..........          ..........          ..........        "};
