/* XPM */
static char * Wall_W_New_xpm[] = {
"32 32 2 1",
" 	c #000000",
".	c #FFFF00",
"                                ",
"                                ",
"         ..........          ...",
"        ..........          ....",
"                                ",
"                                ",
"     ..........          .......",
"    ..........          ........",
"                                ",
"                                ",
" ..........          .......... ",
"..........          ..........  ",
"                                ",
"                                ",
".......          ..........     ",
"......          ..........      ",
"                                ",
"                                ",
"...          ..........         ",
"..          ..........          ",
"                                ",
"                                ",
"         ..........          ...",
"        ..........          ....",
"                                ",
"                                ",
"     ..........          .......",
"    ..........          ........",
"                                ",
"                                ",
" ..........          .......... ",
"..........          ..........  "};
