/* XPM */
static char * Wall_N_xpm[] = {
"64 64 183 2",
"  	c #000000",
". 	c #733121",
"+ 	c #7B4221",
"@ 	c #6B3918",
"# 	c #633929",
"$ 	c #4A2118",
"% 	c #422118",
"& 	c #523118",
"* 	c #4A2918",
"= 	c #5A3929",
"- 	c #633931",
"; 	c #7B4231",
"> 	c #7B4229",
", 	c #844A31",
"' 	c #7B3929",
") 	c #734229",
"! 	c #6B3921",
"~ 	c #6B3929",
"{ 	c #523121",
"] 	c #422110",
"^ 	c #5A3121",
"/ 	c #633118",
"( 	c #5A3118",
"_ 	c #734A29",
": 	c #6B4231",
"< 	c #7B4A29",
"[ 	c #7B4A31",
"} 	c #8C5231",
"| 	c #946342",
"1 	c #7B4A21",
"2 	c #633129",
"3 	c #5A2921",
"4 	c #6B4229",
"5 	c #5A3921",
"6 	c #633121",
"7 	c #6B2921",
"8 	c #6B3129",
"9 	c #522921",
"0 	c #4A3131",
"a 	c #391810",
"b 	c #311010",
"c 	c #311808",
"d 	c #391808",
"e 	c #4A2110",
"f 	c #845231",
"g 	c #945A39",
"h 	c #844A29",
"i 	c #8C5239",
"j 	c #734231",
"k 	c #5A3918",
"l 	c #522918",
"m 	c #5A2910",
"n 	c #6B3118",
"o 	c #632918",
"p 	c #633918",
"q 	c #632921",
"r 	c #945229",
"s 	c #945231",
"t 	c #8C5229",
"u 	c #6B3131",
"v 	c #733931",
"w 	c #844229",
"x 	c #733918",
"y 	c #311008",
"z 	c #8C4231",
"A 	c #945A31",
"B 	c #945242",
"C 	c #7B3931",
"D 	c #8C4A31",
"E 	c #6B3121",
"F 	c #422918",
"G 	c #4A3121",
"H 	c #4A2108",
"I 	c #945A42",
"J 	c #8C4A29",
"K 	c #6B3931",
"L 	c #734239",
"M 	c #7B4A39",
"N 	c #844A39",
"O 	c #422108",
"P 	c #8C4239",
"Q 	c #843929",
"R 	c #5A2918",
"S 	c #4A1808",
"T 	c #522910",
"U 	c #9C6342",
"V 	c #945239",
"W 	c #7B3921",
"X 	c #844221",
"Y 	c #8C4A39",
"Z 	c #392121",
"` 	c #392910",
" .	c #7B5242",
"..	c #944A29",
"+.	c #9C5229",
"@.	c #8C5242",
"#.	c #844231",
"$.	c #A56342",
"%.	c #523129",
"&.	c #A55A39",
"*.	c #845229",
"=.	c #845239",
"-.	c #8C5A39",
";.	c #844A21",
">.	c #94524A",
",.	c #8C5A4A",
"'.	c #6B3910",
").	c #844239",
"!.	c #5A3931",
"~.	c #732929",
"{.	c #5A3939",
"].	c #5A2908",
"^.	c #845242",
"/.	c #7B3918",
"(.	c #9C5A31",
"_.	c #522118",
":.	c #7B3121",
"<.	c #634231",
"[.	c #6B4A21",
"}.	c #4A2921",
"|.	c #8C4229",
"1.	c #521810",
"2.	c #9C5A39",
"3.	c #946331",
"4.	c #6B4218",
"5.	c #9C6329",
"6.	c #9C6339",
"7.	c #633110",
"8.	c #733110",
"9.	c #4A2910",
"0.	c #5A3110",
"a.	c #6B4239",
"b.	c #7B5239",
"c.	c #844A42",
"d.	c #946B4A",
"e.	c #94634A",
"f.	c #8C5A42",
"g.	c #8C5A29",
"h.	c #5A2118",
"i.	c #632110",
"j.	c #522121",
"k.	c #4A3129",
"l.	c #843931",
"m.	c #4A2929",
"n.	c #4A2121",
"o.	c #391008",
"p.	c #311000",
"q.	c #522108",
"r.	c #392118",
"s.	c #421810",
"t.	c #8C3929",
"u.	c #422910",
"v.	c #523110",
"w.	c #5A3910",
"x.	c #421010",
"y.	c #421808",
"z.	c #421008",
"A.	c #422100",
"B.	c #391018",
"C.	c #391818",
"D.	c #421818",
"E.	c #422121",
"F.	c #733131",
"G.	c #392110",
"H.	c #8C4A21",
"I.	c #735239",
"J.	c #843921",
"K.	c #844218",
"L.	c #8C4A18",
"M.	c #944A21",
"N.	c #9C7352",
"O.	c #845A31",
"P.	c #422921",
"Q.	c #945221",
"R.	c #733118",
"S.	c #7B3118",
"T.	c #9C5239",
"U.	c #9C5A42",
"V.	c #632908",
"W.	c #6B2918",
"X.	c #4A3110",
"Y.	c #7B4218",
"Z.	c #735231",
"                                                                                                                                ",
". + @ @ # $ % & * = - ; > > , ; ' > > ) ; ) , ; , ) ) ) ! + ! ~ = { ] ^ / . ( ~ > _ / ^ : < [ } | 1 2 3 ^ ^ 4 ( = & 5 6 # 2 ~ . ",
"2 7 8 9 0 a b c d e 6 / > f g , , h } i > ) j ; , j ; ) ) @ @ k = 9 { l m n o 6 p / / q 2 + > r s t u v u - ~ 2 = 6 6 k / . @ ! ",
"                                                                                                                                ",
"                                                                                                                                ",
"[ n n + w x { d y % 6 ) z A r B C D D D ) ! ~ 4 ~ ! 6 ) ) > . E 9 ] F G % % * * H * ^ E [ } } f } } } w I i > ! ) . ~ . h < + J ",
"K L K M M N K * O l 6 / > h g P Q w D w ) ~ j ) ; [ ) . ! @ ! ' 6 R 9 3 & S l T R { ! > t U A g } } [ h V V < < ) ~ W X w > > Y ",
"                                                                                                                                ",
"                                                                                                                                ",
"Z ` ` F : j p 6 ^ . v j >  .: 4 + D > i ..} h +.+.h + , ) > , h ; E v w < ) . ~ 6 T R R / / w h g @.C > #.. ) @ # 2 > > > #.V $.",
"%.G F = L  .~ 4 ! + L L ) L 4 ~ ) . > , &.g g r .., [ , > D i I #.) > ) > , > j _ ! # # ( 6 ( ! ) v 8 *.' ) = ^ ^ ^ ) ) w ) w } ",
"                                                                                                                                ",
"                                                                                                                                ",
"=., ; > > h , } -.;.D s s >.N j >.,., > A >.B , > ' D } V V } '.j ; K 2  .; N ).#.> , > L K )  .j %.!.> i > ) p ( = ) + n E 6 4 ",
"> ) ~.+ . 8 v > > ;.X X s @.[ _ @.@.I . A I >.> , ) > , D D + > ) ; 6 l ^ ; ) C ; , 1 + j j ! j ! !.{.E #.N ) j / ) [ + x ) ) ( ",
"                                                                                                                                ",
"                                                                                                                                ",
"2 2 q ~ ) v @ @ / # + > > J A g | U i , h I I h . ! 6 ) ) ~ !.{ 2 6 ) ~ # l l ].) #.N , < + } =.=.^.) v ) | @.< > M W ~ / # # ~ ",
"/ # ^ : ; M [ ; ! ! + /.> > s t (.g i < h I V 1 1 4 # ) [ j # # ~ ) . 4 ( 9 $ _.6 ) ) ; ) > h @.N ^.>.N , f I } h + ) = %.!.= # ",
"                                                                                                                                ",
"                                                                                                                                ",
"+ # # l 2 - N , ) @ + > ) R / ) + , M ~.> #.7 6 R = ^ ^ ! [ ; D #.w ) 6 5 { # : 4 p ! ) j ) < > ; w :.v ) ) E ! R ~ ~ # 4  .K # ",
"q <.# { ( : ) ; ) ) . ) ! R ~ 5 / 6 2 q [.~ 8 * 9 }.{ { / ! ) W J |.+ ) 6 ^ ^ j ~ ~ > ) 8 ~ . ~ ) x x 6 E 6 u 2 6 3 - 3 2 8 2 9 ",
"                                                                                                                                ",
"                                                                                                                                ",
"# l 5 ^ R 1.6 E v 3 q 6 ) + . ! 6 ( R ^ # : ~ 6 E ) ) ) ! j ) W h |.h t 2.t 3.} D > > i w 4.4.4 ; K ~ ^ l R ~ v ; ) 2 / R ~ ~ / ",
"! [ ! 6 l ^ ^ 2 3 1.1.o 8 6 8 = j ! ~ ^ 8 8 2 ^ ^ ) E ~ ; : ^ ~ ) D D s 5.(.3.6.B Y > I , _ 7.4 ' 4 ! 5 e ] $ l ~ 4 + 6 T / + / ",
"                                                                                                                                ",
"                                                                                                                                ",
"8.+ < > : 6 5 e * 6 6 2 3 ^ ^ j 4 : # 3 ( ~ ) ) [ , t r s B =.[ _ # # ( 6 ( ! ) v 8 1 ) 8 9 ^ # ~ . ; ) ) # q R T 9.9.T 0.6 6 ! ",
"p < < h j j ^ 3 n ) > 8 a.- - K - %.!.}.= ) C #.> , h s r A h V -.^.j : : p 3 = l = + ~ 2 = 6 ~ ! . < > x '.0.( 9.1.9 R 6 ! # ^ ",
"                                                                                                                                ",
"                                                                                                                                ",
"O l 6 + . ) *.w . ! h I > I i ; j b.! =.j [ f r J ' ) 8 > ) C ; , 1 + j j ! : 6 = = R ( # ) 1 c.~., D w x n ( ( R R 6 # 6 ! m R ",
"R T R ! > =.d.*.[ ) < e.f.} g -.-.g.+ *.i [ N J w > 2 = ^ j @ } V g , ) ~ j 6 6 5 # * ] R 6 [ ).' > #.. 6 o # 6 6 ( 6 6 # = * F ",
"                                                                                                                                ",
"                                                                                                                                ",
"$ & 7.+ } } } } V V ;.V V V > C h.2 i.R l 2 # ^ # 6 6 l j.$ _.6 ) ) ; ) ) + j ) 6 ^ ^ 6 / : # k.}.f M j # # j . 6 2 R = 3 # 3 = ",
"l R / ) , @.V l.c.M < + + @ @ # $ ] 9.] F m.3 $ ^ 6 ( { n.}.9.6 ! ) 4 4 ! h ) # 6 = # ! ) [ j 0 0 > ,.=.M j ^.K # ^ 2 ( 6 v j j ",
"                                                                                                                                ",
"                                                                                                                                ",
"$ * 9.l T 3 0./ 6 2 / [ ) ) m _.o.y p.q.8.w 1 > . / l $ }.}.9 * ^ 6 6 6 ! ) ) ~ # K = ( m # # 5 { G m ) #., [ 2 ] r.G %.!.~ + } ",
"3 { l s.e T o / # 6 ^ # - # ^ $ % d 3 E t.i B #.) / ( & O u.v.v.k # ^ # ~ ~ 4 : : : j # 4 ~ j - 3 }.= 9 h , i [ ! = - !.: K ) > ",
"                                                                                                                                ",
"                                                                                                                                ",
"! [ ! ! p ! @ p w.l x.y.z.S A.u.] 9.q.^ : 4 5 j [.# # 9 % B.C.D.E.9 2 6 E ' ' X D D ; w w #.Y } > ) ~ ^ ] { / > @ ) ; ) ! ~ l ( ",
"h [ ) ! ~ ! 6 ( 2 ! }.D.E.a ] e = ( ! E j L u F.) . + ~ 5 ^ * * G.n.9 6 ~ n n + w H.*.> r > > h < [ I.5 ^ * m n n 6 4 + + - = }.",
"                                                                                                                                ",
"                                                                                                                                ",
"! < < < ! ) ! _ _ : : : =.e.W |.w J.w #.Y -.> [ -.w . ! > ).2 # 2 = %.= }.%.%.m.6 j f [ @ x K.t r h ! ^ l }.* * l l H % }.{ { ^ ",
"6 / n ! w w w ) ! ) > . s H.L.M.t h s > > , f f.N.O.[ ) > f.j ) 6 & F P.Z ` ` F j L + > # 6 ' h Y D C / 9 $ R q./ m R G.F * 5 6 ",
"                                                                                                                                ",
"                                                                                                                                ",
"@ ) W D |.Q z V i , # ~ ^ { / + J.t t Q.Q.(.2.g } } D } i -.} g -.-.} + } I =.f.! ! 6 l ] % ] _./ 6 / ~ n 6 n ! m 6 l * * & * l ",
") . W R.w w V D > 2 { $ * * S.. Q V $.V T.U.U.U.U.#.c.; i i *., ,.i -., f.@.N c.j M ^.^ P.s.9 3 6 6 ~ [ L 2 ^ ^ # = %.( 5 p # R ",
"                                                                                                                                ",
"                                                                                                                                ",
"j ) [ > < ) < > ) 6 6 R 9 i.x + E 7 > ; ) v K v ! E 2 ) . + @ @ # $ % & * %.%.- 8 v ' #.< = 2 2 ~ 4 ) ! l F F r.u.* l 6 6 > > ; ",
"< < [ M < < < > < + @ p 0.( i./ 6 / 4 ( 6 6 4 , } ;.; ) 2 2 2 9 0 a b c c a % s.R ^ ) ) , 2 7 ) ; < ; K # 9 %.}.F ] 9 p ! ! ) 4 ",
"                                                                                                                                ",
"                                                                                                                                ",
"V.m q o o o / m / / @ 6 ! 6 ! ( n ) W.X.& 6 8 + Y.x / m l 3 = ) 6 3 z.$ s.$ R ! ' [ 8.> E E n + + < ) j ) ) . f @.N ).4 j b.! ( ",
"9.l e $ e l v.( m E ) O.Z.: 4 ! j j ) ~ 5 n ) > } + ~ 6 l l 6 6 ! 6 i.T R R ) 4 ; ; + u 8 3 . > < < < ~ ~ ! ) . , , i } D > ) ( ",
"                                                                                                                                "};
