/* XPM */
static char * square_xpm[] = {
    "10 10 2 1",
    " 	c None",
    ".	c #0000FF",
    "          ",
    "   ...... ",
    "  ........",
    "  ........",
    "  ........",
    "  ........",
    "  ........",
    "  ........",
    "  ........",
    "   ...... ",
    "          "
};
